<?xml version="1.0" standalone="no"?><!DOCTYPE svg PUBLIC "-//W3C//DTD SVG 1.1//EN" "http://www.w3.org/Graphics/SVG/1.1/DTD/svg11.dtd"><svg t="1589378150643" class="icon" viewBox="0 0 1024 1024" version="1.1" xmlns="http://www.w3.org/2000/svg" p-id="1973" xmlns:xlink="http://www.w3.org/1999/xlink" width="200" height="200"><defs><style type="text/css"></style></defs><path d="M801.07015494 1004.39703794c-101.96236637 0-184.96710004-82.9468763-184.96710004-184.92852845 0-101.94308059 83.00473366-184.90924268 184.96710004-184.90924267s184.92852846 82.96616209 184.92852846 184.90924267C985.9986834 921.45016044 903.03252131 1004.39703794 801.07015494 1004.39703794L801.07015494 1004.39703794zM801.07015494 664.81819436c-85.26113572 0-154.68888549 69.35060905-154.68888549 154.66960091 0 85.22256415 69.42775099 154.65031513 154.68888549 154.65031514 85.20327836 0 154.65031513-69.42775099 154.65031513-154.65031514C955.70118429 734.14951762 886.27343329 664.81819436 801.07015494 664.81819436L801.07015494 664.81819436zM801.07015494 664.81819436" fill="#d81e06" p-id="1974"></path><path d="M871.15361181 725.22033713l-31.84033792 0-18.08978678 33.38317673c-10.02845343 18.84192039-16.1226667 31.30034434-18.4562107 37.4138434l-0.61713551 0c-5.07208348-11.51343487-17.26051002-35.11887099-36.48814012-70.81630592l-33.98102647 0 44.93518318 77.06480307-53.99936175 0 0 24.99398982 63.19853841 0 0 34.4438781-63.19853841 0 0 25.20613106 63.19853841 0 0 50.12297895 31.37748628 0 0-50.12297895 60.99999372 0 0-25.20613106-61.01927829 0 0-34.4438781 60.99999372 0 0-24.95541946L825.87129052 802.30442598 871.15361181 725.22033713 871.15361181 725.22033713zM871.15361181 725.22033713" fill="#d81e06" p-id="1975"></path><path d="M636.71923993 390.98357319c0 22.91115744-18.88049076 41.2902262-42.15807333 41.2902262L289.4454869 432.27379939c-23.27758256 0-42.04235981-18.37906876-42.04235981-41.2902262L247.40312709 172.30544289c0-22.8340155 18.89977654-41.44451007 42.04235981-41.44451008l305.26996359 0c23.25829678 0 42.15807332 18.47549648 42.15807332 41.44451008l0 218.6781303L636.71923993 390.98357319zM995.83428138 233.67186053c0 0 0.55927937-13.5384111-15.4862454-27.71324352-31.58962631-27.86752739-85.1454222-74.17198092-101.46094315-90.29464761-9.17989209-9.06417857-30.35535527-14.27126014-44.41447538 0.2507116-13.42269881 13.84697887-7.63705207 31.97533601 2.35282978 41.25165583 14.07840468 13.19127298 45.99588454 39.30382154 64.02781518 58.82073361-15.04267954 18.24407067-40.01738479 37.47169955-55.54220054 54.3272153-2.02497623 2.17926011-1.9285485 4.68637377-1.92854852 5.72778936 0.15428388 9.64274373 0.44356586 16.39266289 0.32785356 20.36547341-0.11571351 3.6063854 4.12709441 4.84065765 6.05564291 4.84065766l78.85835348 0c5.24565194 0 6.55706491 5.24565194 6.5570649 5.24565193l0 498.18268346c0 27.82895703-15.35124731 36.54599627-31.18463203 36.54599626-15.736957 0-32.6503289-8.81346697-32.6503289-36.54599626L871.34646727 397.28992771c0-36.85456403-4.12709441-53.65222363-46.59373548-55.88933988-10.45273349-0.57856515-52.12866939-0.09642772-74.84697259 0L749.9057592 81.83722682c0-34.32816579-28.33037904-62.00283894-63.2178242-62.00283895L199.05441277 19.83438787c-34.90672974 0-63.2178242 27.69395894-63.2178242 62.00283895l0 832.5351609L99.73415814 914.37238772c-14.42554402 0-25.93897889 11.39772257-25.93897889 25.5532692l0 37.51027112c0 14.17483242 11.64843418 26.72968409 25.93897889 26.72968409l685.078332 0c14.29054593 0 25.95826468-12.53556588 25.95826469-26.72968409l0-37.51027112c0-14.15554662-11.64843418-25.55326919-25.95826469-25.5532692l-34.98387168 0L749.82861725 401.41702091l43.54662825 0c15.52481697 0 16.79765838 15.04267954 16.79765838 15.04267954l0 392.15108005c0 100.03381787 84.39328859 101.03666309 93.76603493 101.03666309 12.63199361 0 91.77962906 0 91.77962905-99.84096241L995.71856908 233.67186053 995.83428138 233.67186053zM995.83428138 233.67186053" fill="#d81e06" p-id="1976"></path></svg>