<?xml version="1.0" standalone="no"?><!DOCTYPE svg PUBLIC "-//W3C//DTD SVG 1.1//EN" "http://www.w3.org/Graphics/SVG/1.1/DTD/svg11.dtd"><svg t="1589089674187" class="icon" viewBox="0 0 1024 1024" version="1.1" xmlns="http://www.w3.org/2000/svg" p-id="3377" xmlns:xlink="http://www.w3.org/1999/xlink" width="200" height="200"><defs><style type="text/css"></style></defs><path d="M89.105468 993.882353h843.294118V36.141176H89.105468z" fill="#FFFFFF" p-id="3378"></path><path d="M721.576056 66.258824c0-18.070588-12.047059-30.117647-30.117647-30.117648H330.046645c-18.070588 0-30.117647 12.047059-30.117647 30.117648v445.741176h-180.705883c-12.047059 0-24.094118 6.023529-30.117647 18.070588 0 12.047059 0 24.094118 6.02353 36.141177l391.529411 421.647059c6.023529 0 18.070588 6.023529 24.094118 6.023529s18.070588-6.023529 24.094118-12.047059l391.529411-421.647059c6.023529-6.023529 12.047059-18.070588 6.02353-30.117647s-18.070588-18.070588-30.117647-18.070588h-180.705883V66.258824z m-60.235294 445.741176c0 30.117647 24.094118 54.211765 60.235294 54.211765h120.470589L510.752527 921.6 179.458409 572.235294h120.470589c18.070588 0 30.117647-6.023529 42.164706-18.070588 12.047059-12.047059 18.070588-24.094118 18.070588-42.164706v-421.647059h307.2v421.647059h-6.02353z" fill="#484848" p-id="3379"></path></svg>