<?xml version="1.0" standalone="no"?><!DOCTYPE svg PUBLIC "-//W3C//DTD SVG 1.1//EN" "http://www.w3.org/Graphics/SVG/1.1/DTD/svg11.dtd"><svg t="1589469223354" class="icon" viewBox="0 0 1024 1024" version="1.1" xmlns="http://www.w3.org/2000/svg" p-id="1715" width="200" height="200" xmlns:xlink="http://www.w3.org/1999/xlink"><defs><style type="text/css"></style></defs><path d="M827.667456 385.504256c0-176.451584-143.03744-319.488-319.488-319.488s-319.488 143.036416-319.488 319.488c0 64.45056 19.105792 124.439552 51.933184 174.63296L240.059392 560.137216l239.49824 382.789632 0.01024 0c5.231616 10.505216 16.077824 17.729536 28.611584 17.729536 12.532736 0 23.380992-7.225344 28.61056-17.729536l0.01024 0 239.499264-382.789632-0.565248 0C808.562688 509.943808 827.667456 449.95584 827.667456 385.504256L827.667456 385.504256zM508.179456 239.819776c80.461824 0 145.685504 65.222656 145.685504 145.685504 0 80.462848-65.222656 145.68448-145.685504 145.68448-80.462848 0-145.68448-65.221632-145.68448-145.68448C362.496 305.042432 427.716608 239.819776 508.179456 239.819776L508.179456 239.819776zM508.179456 239.819776" p-id="1716" fill="#D6C386"></path></svg>