<?xml version="1.0" standalone="no"?><!DOCTYPE svg PUBLIC "-//W3C//DTD SVG 1.1//EN" "http://www.w3.org/Graphics/SVG/1.1/DTD/svg11.dtd"><svg t="1589626764329" class="icon" viewBox="0 0 1024 1024" version="1.1" xmlns="http://www.w3.org/2000/svg" p-id="1723" xmlns:xlink="http://www.w3.org/1999/xlink" width="200" height="200"><defs><style type="text/css"></style></defs><path d="M419.84 610.986667l-116.053333-112.64c-13.653333-13.653333-34.133333-13.653333-47.786667 0l-6.826667 6.826666c-13.653333 13.653333-13.653333 34.133333 0 47.786667l157.013334 150.186667c13.653333 13.653333 34.133333 13.653333 47.786666 0l327.68-310.613334c13.653333-13.653333 13.653333-34.133333 0-47.786666l-6.826666-3.413334c-13.653333-13.653333-34.133333-13.653333-47.786667 0L443.733333 610.986667c-6.826667 6.826667-17.066667 6.826667-23.893333 0z" fill="#60D360" p-id="1724"></path><path d="M512 0c283.306667 0 512 228.693333 512 512s-228.693333 512-512 512S0 795.306667 0 512 228.693333 0 512 0z m0 68.266667C266.24 68.266667 68.266667 266.24 68.266667 512s197.973333 443.733333 443.733333 443.733333 443.733333-197.973333 443.733333-443.733333S757.76 68.266667 512 68.266667z" fill="#60D360" p-id="1725"></path></svg>